<?xml version="1.0" standalone="no"?>
<!DOCTYPE svg PUBLIC "-//W3C//DTD SVG 20010904//EN"
 "http://www.w3.org/TR/2001/REC-SVG-20010904/DTD/svg10.dtd">
<svg version="1.0" xmlns="http://www.w3.org/2000/svg"
 width="512.000000pt" height="512.000000pt" viewBox="0 0 512.000000 512.000000"
 preserveAspectRatio="xMidYMid meet">
<metadata>
Created by potrace 1.11, written by Peter Selinger 2001-2013
</metadata>
<g transform="translate(0.000000,512.000000) scale(0.100000,-0.100000)"
fill="#000000" stroke="none">
<path d="M1525 4821 c-16 -9 -36 -24 -43 -33 -7 -10 -20 -18 -27 -18 -8 0 -43
-13 -77 -30 -34 -16 -67 -30 -73 -30 -7 0 -24 -18 -39 -40 -86 -131 -77 -101
-78 -282 0 -146 2 -164 18 -173 31 -17 62 -55 69 -83 11 -46 32 -69 94 -103
72 -40 91 -67 71 -104 -8 -14 -28 -43 -45 -63 -18 -20 -42 -66 -55 -102 -12
-36 -29 -74 -36 -85 -8 -11 -14 -38 -14 -60 0 -22 -7 -65 -16 -95 -68 -240
-74 -275 -63 -351 6 -41 13 -95 16 -121 5 -46 5 -46 25 -26 16 16 18 24 9 49
-11 31 -3 59 29 109 9 14 17 44 18 67 1 45 45 167 70 195 8 10 38 31 66 47 28
16 69 46 90 65 22 20 54 38 72 42 18 3 40 15 50 25 9 10 22 19 29 19 7 0 33
22 58 50 49 53 88 75 150 85 20 3 52 19 70 35 18 16 46 32 61 36 16 4 44 24
63 45 20 22 40 39 46 39 6 0 -1 -13 -16 -28 -15 -15 -27 -33 -27 -40 0 -19 38
-14 60 8 11 11 25 20 30 20 6 0 22 7 35 16 13 9 30 14 37 12 8 -3 -1 -12 -19
-21 -58 -30 -49 -37 44 -35 48 1 122 -2 164 -6 59 -7 87 -5 125 7 82 26 216
32 268 12 25 -10 52 -15 60 -12 17 7 162 -27 180 -42 6 -5 30 -14 53 -20 43
-12 65 -28 83 -61 6 -11 39 -28 80 -41 38 -12 70 -25 70 -30 0 -8 89 -99 172
-176 25 -23 49 -54 52 -69 4 -15 22 -44 40 -65 18 -21 39 -51 47 -66 16 -33
99 -145 113 -155 5 -4 19 -2 29 4 17 9 19 17 13 67 -3 31 -10 94 -15 141 -5
47 -17 110 -26 140 -9 30 -25 82 -35 115 -10 33 -21 76 -24 97 -4 20 -12 38
-19 41 -7 3 -19 24 -26 48 -7 24 -18 57 -24 72 -11 31 -2 42 58 71 48 23 105
77 126 118 11 21 35 53 54 71 l35 32 7 118 c3 65 10 120 15 123 9 6 -1 86 -12
94 -3 3 -16 25 -29 50 -13 25 -30 53 -38 62 -18 20 -88 58 -107 58 -7 0 -21 9
-31 20 -10 11 -22 20 -27 20 -5 0 -26 13 -46 30 -35 28 -41 29 -147 31 -89 2
-118 -2 -150 -17 -22 -10 -65 -23 -95 -29 -42 -8 -56 -15 -59 -30 -2 -11 -14
-33 -27 -48 -13 -16 -24 -34 -24 -42 0 -7 -7 -18 -15 -25 -8 -7 -15 -19 -15
-28 0 -8 -11 -30 -26 -49 -38 -50 -82 -47 -158 13 -56 44 -61 46 -140 51 -44
3 -86 10 -93 15 -12 10 -194 11 -283 3 -98 -10 -198 -34 -250 -61 -30 -16 -66
-29 -78 -29 -32 -1 -92 69 -92 107 0 15 -4 28 -10 28 -5 0 -10 8 -10 19 0 10
-6 24 -14 30 -8 7 -18 25 -21 41 -6 27 -22 38 -83 55 -13 4 -49 19 -80 33 -42
20 -74 27 -122 27 -36 1 -76 4 -90 7 -15 3 -38 -1 -55 -11z m128 -172 c20 -5
37 -16 37 -23 0 -6 6 -21 14 -32 12 -15 17 -17 27 -6 19 18 60 15 75 -5 22
-30 16 -63 -18 -95 -31 -29 -31 -30 -15 -58 9 -15 17 -46 17 -69 0 -37 -3 -42
-37 -59 -37 -19 -39 -19 -78 -1 -26 12 -41 14 -44 7 -7 -20 -41 -48 -59 -48
-11 0 -34 7 -52 16 -31 16 -32 19 -27 58 3 23 9 50 13 59 4 12 -4 26 -25 44
-24 22 -31 36 -31 65 0 31 5 40 29 52 15 8 40 13 55 10 20 -3 26 0 26 13 0 21
36 83 47 83 5 0 25 -5 46 -11z m2003 -47 c25 -18 43 -56 37 -83 -5 -27 -3 -29
24 -29 21 0 33 -8 45 -28 26 -44 14 -69 -43 -87 -44 -15 -49 -19 -49 -47 0
-17 -9 -46 -21 -65 -19 -30 -25 -33 -62 -31 -35 3 -45 9 -62 35 -21 34 -43 40
-75 21 -15 -10 -24 -9 -44 2 -14 7 -26 19 -26 27 0 7 -6 22 -12 33 -11 18 -8
24 26 55 l39 34 -12 46 c-10 39 -9 50 5 75 25 42 70 48 105 14 l27 -26 13 23
c15 29 28 39 54 39 11 0 25 -4 31 -8z m-998 -252 c-5 -24 -74 -35 -103 -16
-40 26 -29 35 40 33 52 -2 65 -5 63 -17z m-674 -55 c25 -19 17 -19 -25 0 -24
10 -28 14 -14 14 11 0 29 -6 39 -14z m1269 8 c-7 -2 -19 -2 -25 0 -7 3 -2 5
12 5 14 0 19 -2 13 -5z m-1389 -24 c-10 -4 -26 -8 -34 -8 -12 0 -11 3 3 14 11
7 26 11 35 8 13 -6 13 -8 -4 -14z m-83 -10 c-12 -12 -25 -19 -28 -16 -8 8 20
36 36 37 10 0 8 -7 -8 -21z m1529 11 c11 -7 4 -8 -23 -6 -21 2 -40 6 -44 10
-10 10 50 7 67 -4z m-1270 -10 c0 -5 -4 -10 -9 -10 -6 0 -13 5 -16 10 -3 6 1
10 9 10 9 0 16 -4 16 -10z m-29 -45 c44 -35 84 -109 80 -147 -3 -35 13 -43 84
-41 l60 2 -45 -10 c-25 -6 -56 -10 -69 -11 -26 -1 -51 -19 -51 -37 0 -12 35
-9 73 7 33 14 47 15 47 4 0 -9 -65 -32 -103 -35 -16 -2 -38 -15 -50 -30 -12
-14 -40 -39 -62 -54 -35 -24 -49 -28 -121 -28 l-81 0 -41 42 c-22 23 -45 59
-51 80 -13 46 -14 110 -2 117 4 3 11 18 14 34 3 15 18 40 33 55 29 30 25 49
-6 29 -11 -7 -20 -9 -20 -5 0 17 17 30 45 36 17 3 24 4 18 1 -7 -3 -13 -10
-13 -15 0 -17 25 -8 45 17 19 23 25 24 99 22 71 -2 83 -5 117 -33z m1294 24
c4 -6 14 -8 22 -5 8 3 11 1 8 -4 -4 -6 15 -30 41 -53 26 -24 48 -52 49 -62 1
-11 7 -31 12 -44 10 -26 10 -31 -2 -105 -6 -38 -16 -57 -48 -87 -22 -22 -51
-42 -66 -44 -14 -3 -39 -10 -55 -15 -31 -10 -123 4 -141 22 -6 6 1 7 20 3 l30
-6 -23 18 c-13 10 -38 30 -56 45 -17 14 -49 30 -71 34 -62 11 -208 85 -168 84
26 -1 92 -27 86 -35 -4 -4 -2 -5 5 -1 7 4 28 2 48 -4 19 -7 38 -10 41 -7 9 10
-15 41 -33 42 -29 2 -127 26 -149 36 -13 6 0 7 35 2 30 -3 73 -7 95 -7 l40 -1
5 45 c6 53 54 120 104 144 36 18 161 22 171 5z m57 -11 c-7 -7 -12 -8 -12 -2
0 6 3 14 7 17 3 4 9 5 12 2 2 -3 -1 -11 -7 -17z m48 -40 c-1 -9 -5 -7 -14 4
-7 10 -16 15 -19 11 -4 -3 -7 -2 -7 4 0 18 12 22 26 8 8 -7 14 -20 14 -27z
m-716 -20 c8 -14 6 -22 -11 -39 -17 -18 -32 -21 -89 -20 -56 0 -72 4 -86 21
-9 11 -14 29 -11 40 5 19 12 21 96 18 72 -2 92 -6 101 -20z m-1014 -23 c0 -12
-19 -12 -23 0 -4 9 -1 12 9 8 7 -3 14 -7 14 -8z m-40 -9 c0 -8 -9 -14 -19 -13
-15 1 -17 4 -9 14 14 17 28 16 28 -1z m1877 -21 c8 -9 14 -17 12 -19 -8 -7
-49 14 -49 24 0 15 19 12 37 -5z m-1904 -22 c-7 -2 -19 -2 -25 0 -7 3 -2 5 12
5 14 0 19 -2 13 -5z m1317 -3 c0 -5 -5 -10 -11 -10 -5 0 -7 5 -4 10 3 6 8 10
11 10 2 0 4 -4 4 -10z m-185 -60 c4 -6 0 -22 -9 -35 -9 -13 -16 -31 -16 -40 0
-22 -26 -19 -52 7 l-21 21 -18 -21 c-22 -28 -45 -28 -59 -1 -11 20 -12 20 -31
-5 -17 -22 -23 -24 -43 -14 -27 12 -48 51 -40 72 4 11 22 13 72 11 37 -2 92 0
122 4 80 12 88 12 95 1z m87 -40 c26 -16 55 -30 63 -30 7 0 17 -4 20 -10 3 -5
1 -10 -5 -10 -14 0 -98 43 -125 64 -34 26 -5 18 47 -14z m-527 10 c-3 -5 -12
-10 -18 -10 -7 0 -24 -6 -39 -14 -19 -10 -29 -11 -37 -3 -9 9 -3 15 21 24 41
14 81 16 73 3z m105 -25 c0 -7 -115 -55 -133 -55 -17 0 95 58 116 59 9 1 17
-1 17 -4z m-225 -35 c-3 -5 -11 -10 -16 -10 -6 0 -7 5 -4 10 3 6 11 10 16 10
6 0 7 -4 4 -10z m-621 -21 c13 -6 27 -20 29 -30 3 -11 13 -19 22 -19 26 0 73
-31 79 -53 2 -10 0 -30 -7 -44 -8 -18 -8 -29 1 -43 18 -30 5 -47 -46 -60 -26
-6 -55 -16 -64 -21 -34 -18 -68 -11 -78 16 -5 14 -17 25 -26 25 -25 0 -54 30
-54 54 1 27 30 63 55 68 15 3 20 11 20 38 0 36 19 80 35 80 5 0 20 -5 34 -11z
m1413 -5 c-3 -3 -12 -4 -19 -1 -8 3 -5 6 6 6 11 1 17 -2 13 -5z m78 -34 c3 -5
1 -10 -4 -10 -6 0 -11 5 -11 10 0 6 2 10 4 10 3 0 8 -4 11 -10z m40 -28 c-3
-3 -11 0 -18 7 -9 10 -8 11 6 5 10 -3 15 -9 12 -12z m460 -26 c11 -22 33 -51
49 -66 31 -29 31 -55 -1 -67 -10 -3 -29 -17 -42 -30 -25 -24 -55 -30 -67 -12
-3 6 -17 8 -31 4 -32 -8 -53 10 -53 45 0 19 -8 33 -25 44 -14 9 -25 22 -25 30
0 22 34 51 62 53 15 0 39 10 54 22 37 29 55 23 79 -23z"/>
<path d="M1610 4594 c0 -8 5 -12 10 -9 6 3 10 10 10 16 0 5 -4 9 -10 9 -5 0
-10 -7 -10 -16z"/>
<path d="M3541 4414 c0 -11 3 -14 6 -6 3 7 2 16 -1 19 -3 4 -6 -2 -5 -13z"/>
<path d="M1828 4216 c-37 -16 -116 -100 -124 -132 -4 -14 -4 -48 -2 -75 10
-105 107 -167 208 -134 56 19 92 43 84 56 -3 6 -12 8 -20 5 -7 -3 -16 0 -20 6
-5 7 4 9 25 6 22 -3 36 1 48 14 9 10 13 21 10 25 -4 3 1 12 11 19 14 11 14 14
2 15 -20 2 -63 5 -125 9 l-50 3 45 6 c40 5 45 9 45 31 0 22 -5 26 -40 30 -31
4 -36 7 -21 13 11 4 39 5 63 1 39 -6 42 -8 26 -20 -25 -18 -5 -48 36 -52 28
-3 31 0 31 23 0 14 -7 28 -16 32 -12 4 -13 8 -3 13 18 12 -6 64 -43 95 -24 21
-40 25 -86 24 -31 0 -69 -6 -84 -13z m68 -81 c-8 -8 -18 -15 -22 -15 -3 0 -1
7 6 15 7 8 17 15 22 15 5 0 3 -7 -6 -15z m-56 -15 c0 -5 -8 -10 -17 -10 -15 0
-16 2 -3 10 19 12 20 12 20 0z m-25 -44 c0 -9 7 -21 15 -26 11 -7 4 -9 -22 -8
-21 1 -38 2 -38 4 0 1 5 15 10 29 11 29 35 29 35 1z m175 -85 c0 -5 -9 -11
-20 -14 -22 -6 -26 3 -8 21 11 11 28 7 28 -7z m-180 -1 c0 -5 -4 -10 -10 -10
-5 0 -10 5 -10 10 0 6 5 10 10 10 6 0 10 -4 10 -10z m116 -35 c21 -20 0 -28
-41 -16 -16 5 -22 10 -12 10 9 1 17 6 17 11 0 15 19 12 36 -5z"/>
<path d="M3109 4193 c-31 -28 -40 -43 -37 -63 1 -15 -3 -34 -10 -42 -7 -9 -10
-23 -6 -32 7 -17 47 -32 63 -22 16 10 41 -5 41 -25 0 -19 -15 -26 -24 -11 -8
14 -66 13 -66 -1 0 -27 45 -63 73 -58 4 1 26 2 48 3 23 1 43 7 46 14 4 10 10
11 23 4 9 -5 20 -6 24 -2 4 3 4 -1 1 -11 -7 -17 -53 -30 -112 -31 -40 -1 -42
-9 -5 -26 48 -22 118 -23 168 -1 35 16 49 29 64 63 37 81 21 147 -49 213 -58
55 -78 64 -143 65 -53 0 -62 -3 -99 -37z m134 -59 c-2 -6 -18 -8 -34 -6 -20 3
-26 7 -19 12 18 11 58 7 53 -6z m42 -14 c3 -5 1 -10 -4 -10 -6 0 -11 5 -11 10
0 6 2 10 4 10 3 0 8 -4 11 -10z m-95 -16 c0 -7 -53 -25 -58 -20 -11 11 20 34
38 29 11 -3 20 -7 20 -9z m85 -32 c-3 -3 -11 0 -18 7 -9 10 -8 11 6 5 10 -3
15 -9 12 -12z m50 9 c3 -5 2 -12 -3 -15 -5 -3 -9 1 -9 9 0 17 3 19 12 6z"/>
<path d="M2688 3439 c-21 -12 -24 -49 -5 -49 8 0 20 -11 27 -25 7 -14 19 -25
27 -25 7 0 13 -3 13 -8 0 -10 114 -49 169 -58 25 -3 51 -13 59 -20 21 -22 32
-17 32 16 0 17 -4 30 -10 30 -5 0 -14 10 -21 21 l-11 21 32 -18 c36 -21 46
-31 96 -93 32 -41 35 -42 41 -22 3 12 11 19 17 16 6 -3 19 -8 29 -11 11 -4 16
-13 12 -22 -8 -21 14 -44 37 -36 10 3 25 1 33 -6 10 -8 16 -7 23 6 14 25 35 8
22 -17 -13 -23 -5 -40 15 -32 12 4 15 -4 15 -34 0 -27 6 -46 20 -58 11 -10 20
-24 20 -30 0 -7 11 -20 25 -29 l25 -16 0 69 c0 66 -12 119 -29 131 -10 7 -41
70 -41 84 -1 29 -35 55 -155 114 -27 14 -62 33 -77 43 -14 11 -33 19 -42 19
-9 0 -19 7 -22 14 -6 17 -108 41 -125 31 -7 -5 -5 -13 7 -26 26 -29 11 -32
-32 -7 -31 18 -51 22 -111 20 -41 -1 -73 3 -73 8 0 13 -20 12 -42 -1z m137
-69 c30 -22 55 -43 55 -45 0 -11 -18 -4 -38 15 -12 11 -25 19 -29 18 -4 -1
-21 10 -37 25 -43 41 -13 33 49 -13z m100 10 c3 -5 1 -10 -4 -10 -6 0 -11 5
-11 10 0 6 2 10 4 10 3 0 8 -4 11 -10z m60 0 c3 -5 1 -10 -4 -10 -6 0 -11 5
-11 10 0 6 2 10 4 10 3 0 8 -4 11 -10z"/>
<path d="M2100 3397 c0 -47 22 -87 73 -133 53 -48 147 -84 147 -56 0 4 15 6
34 4 18 -2 37 1 40 7 4 6 18 11 32 11 14 0 27 7 31 15 5 14 8 14 24 -1 24 -22
32 -14 20 18 -10 27 -43 46 -49 29 -7 -21 -57 2 -94 43 -20 22 -37 46 -38 52
-1 25 -25 33 -72 23 -36 -8 -54 -7 -83 5 -55 24 -65 21 -65 -17z"/>
<path d="M2503 3403 c-24 -2 -43 -6 -43 -7 0 -2 11 -28 25 -59 34 -73 75 -104
152 -112 63 -8 89 4 56 25 -15 10 -14 10 7 4 41 -11 110 -17 110 -9 0 4 -8 14
-17 21 -12 9 -14 13 -5 14 7 0 10 5 7 10 -5 8 -11 8 -20 0 -10 -9 -16 -7 -24
8 -6 11 -20 22 -31 25 -25 6 -26 -1 -2 -20 16 -14 16 -14 -1 -9 -10 3 -23 6
-28 6 -5 0 -9 7 -9 15 0 10 -10 15 -27 15 -16 0 -23 4 -18 8 6 4 11 18 13 32
l3 25 -17 -24 -17 -23 -24 31 c-13 17 -30 30 -36 29 -7 -1 -31 -3 -54 -5z
m147 -133 c13 -8 13 -10 -2 -10 -9 0 -20 5 -23 10 -8 13 5 13 25 0z"/>
<path d="M2006 3364 c-18 -18 -21 -34 -6 -34 6 0 10 -13 10 -30 0 -16 3 -30 8
-30 4 0 16 -13 27 -30 22 -32 110 -86 119 -72 3 5 -3 17 -14 27 -11 10 -20 22
-20 26 0 4 -15 23 -34 42 -22 23 -36 49 -41 76 -7 44 -23 52 -49 25z"/>
<path d="M2424 3355 c-11 -27 1 -33 19 -9 16 21 16 24 2 24 -9 0 -18 -7 -21
-15z"/>
<path d="M2672 3361 c2 -7 7 -12 11 -12 12 1 9 15 -3 20 -7 2 -11 -2 -8 -8z"/>
<path d="M1898 3339 c-30 -8 -158 -105 -158 -119 0 -5 -6 -15 -14 -22 -18 -18
-51 -84 -87 -173 -30 -73 -36 -105 -19 -105 24 0 60 25 60 42 0 10 7 21 15 24
8 4 15 15 15 25 0 11 7 19 16 19 8 0 13 4 9 9 -8 14 24 41 50 41 14 0 25 7 27
18 4 15 12 18 38 14 32 -5 33 -4 27 25 -5 24 -1 35 19 53 13 13 24 28 24 34 0
6 9 17 20 24 22 13 28 37 7 29 -15 -6 -21 29 -6 38 28 18 -3 35 -43 24z"/>
<path d="M1970 3305 c0 -18 19 -40 26 -32 4 4 0 15 -9 24 -9 10 -17 13 -17 8z"/>
<path d="M2860 3134 c-8 -3 -21 -8 -29 -10 -26 -8 3 -23 59 -29 107 -12 191
-15 205 -8 11 7 11 11 0 26 -11 15 -32 19 -116 22 -57 3 -111 2 -119 -1z"/>
<path d="M1985 3113 c-53 -12 -105 -37 -105 -51 0 -13 12 -14 78 -8 159 15
196 21 199 32 8 25 -105 42 -172 27z"/>
<path d="M1770 3054 c0 -8 5 -12 10 -9 6 4 8 11 5 16 -9 14 -15 11 -15 -7z"/>
<path d="M2936 2945 c-3 -9 -10 -13 -16 -10 -5 3 -10 1 -10 -4 0 -6 -5 -11
-11 -11 -41 0 -134 -118 -127 -162 3 -20 6 -18 21 17 22 49 75 105 100 105 10
0 16 -4 13 -8 -7 -12 13 -84 28 -100 10 -11 18 -10 43 4 17 10 37 15 48 11 16
-7 15 -10 -9 -32 -14 -13 -22 -27 -16 -30 21 -13 87 -15 127 -4 39 11 42 14
37 38 -18 75 -76 151 -114 151 -6 0 -8 5 -5 10 3 6 -1 10 -9 10 -9 0 -16 4
-16 10 0 5 -13 7 -31 3 -20 -4 -34 -1 -39 6 -5 9 -9 8 -14 -4z"/>
<path d="M2055 2930 c6 -9 -17 -14 -53 -13 -8 1 -22 -7 -33 -18 -10 -10 -26
-19 -35 -19 -8 0 -12 -4 -9 -10 3 -5 1 -10 -4 -10 -6 0 -22 -22 -36 -50 -18
-36 -25 -64 -24 -102 l1 -53 8 45 c13 69 36 114 74 143 44 34 49 34 41 -1 -6
-29 16 -95 36 -108 6 -3 22 5 35 19 14 15 30 24 39 21 21 -8 19 -24 -7 -51
-19 -21 -20 -26 -8 -34 18 -12 120 -5 149 10 54 29 -3 154 -88 194 -25 12 -50
28 -54 35 -4 6 -15 12 -23 12 -8 0 -12 -4 -9 -10z m95 -80 c0 -5 -4 -10 -10
-10 -5 0 -10 5 -10 10 0 6 5 10 10 10 6 0 10 -4 10 -10z m0 -49 c0 -6 -4 -13
-10 -16 -5 -3 -10 1 -10 9 0 9 5 16 10 16 6 0 10 -4 10 -9z"/>
<path d="M2510 2627 c-14 -7 -26 -20 -28 -29 -5 -25 27 -68 50 -68 25 0 19 22
-10 35 -12 5 -22 15 -22 22 0 17 35 34 54 27 12 -5 15 -2 10 10 -7 19 -21 20
-54 3z"/>
<path d="M2912 2503 c-9 -3 -10 -9 -2 -18 8 -9 4 -19 -15 -36 -35 -34 -33 -53
5 -45 17 3 29 2 26 -3 -7 -11 11 -26 42 -35 18 -6 22 -3 22 13 0 12 5 21 10
21 6 0 10 -7 10 -16 0 -11 6 -15 20 -11 11 3 20 0 20 -6 0 -7 7 -4 14 6 7 9
19 17 25 17 7 0 21 19 31 43 l19 42 -22 17 c-17 14 -41 17 -107 17 -47 0 -91
-3 -98 -6z m173 -73 c3 -5 1 -10 -4 -10 -6 0 -11 5 -11 10 0 6 2 10 4 10 3 0
8 -4 11 -10z"/>
<path d="M1958 2464 c23 -16 52 -13 52 6 0 5 -17 10 -37 10 -37 0 -37 0 -15
-16z"/>
<path d="M2094 2462 c15 -18 15 -20 -3 -37 -20 -17 -20 -16 -18 10 1 16 -4 30
-12 33 -10 3 -12 0 -8 -12 6 -14 3 -16 -13 -11 -21 7 -29 -10 -7 -18 6 -2 8
-8 4 -13 -5 -5 -13 -1 -18 8 -6 10 -16 15 -25 11 -9 -3 -20 0 -24 7 -10 17
-56 5 -64 -17 -8 -19 11 -34 33 -25 14 5 14 3 2 -11 -7 -9 -20 -17 -28 -17
-12 0 -13 -3 -4 -14 7 -8 34 -17 62 -21 27 -4 46 -11 43 -16 -3 -5 7 -9 23 -9
27 1 28 1 8 16 -14 11 -16 18 -7 21 6 3 10 9 7 14 -4 5 2 6 11 2 12 -4 14 -8
6 -11 -10 -3 -10 -7 -1 -18 13 -15 34 -20 25 -5 -4 5 7 12 24 16 16 4 30 12
30 20 0 7 6 18 13 24 8 6 12 23 9 41 -3 24 -9 30 -28 30 -13 0 -24 5 -24 10 0
6 -7 10 -17 10 -15 0 -15 -1 1 -18z"/>
<path d="M3296 2170 l-28 -28 21 -108 c12 -59 37 -153 56 -208 30 -87 42 -136
33 -136 -25 1 -113 38 -167 69 -95 56 -101 55 -101 -16 0 -112 7 -128 69 -175
31 -23 58 -44 61 -47 3 -3 14 -11 25 -17 11 -6 38 -35 61 -65 65 -87 110 -280
69 -295 -8 -4 -15 -13 -15 -20 0 -8 -11 -19 -25 -24 -14 -5 -25 -14 -25 -20 0
-6 -21 -20 -46 -31 -39 -18 -50 -19 -75 -9 -16 7 -29 20 -29 30 0 27 -9 29
-52 14 -22 -8 -62 -14 -89 -14 -45 0 -49 2 -49 24 0 31 11 39 99 69 79 28 88
33 77 44 -4 4 -16 1 -27 -6 -24 -14 -41 -5 -19 10 11 7 1 9 -32 6 -26 -2 -51
-6 -54 -10 -16 -16 -44 -5 -73 30 l-30 36 36 29 c27 21 46 28 79 28 37 0 44 3
44 20 0 13 7 20 20 20 13 0 20 -7 20 -19 0 -10 7 -22 16 -25 41 -16 27 23 -20
58 -22 17 -43 21 -109 22 -80 1 -82 1 -85 26 -2 19 2 28 17 33 12 3 21 10 21
14 0 4 23 13 51 20 64 17 62 38 -6 63 -58 21 -86 23 -103 6 -15 -15 -38 -20
-80 -19 -20 1 -35 -5 -38 -13 -4 -11 -19 -13 -63 -9 -32 3 -61 2 -63 -3 -3 -5
-1 -42 3 -82 6 -46 6 -79 0 -91 -7 -13 -6 -24 4 -37 8 -11 15 -41 15 -67 0
-27 5 -57 10 -67 8 -16 5 -21 -17 -32 -41 -20 -43 -42 -3 -36 22 3 34 0 37 -9
8 -22 -11 -35 -40 -28 -21 6 -27 16 -36 53 -5 26 -10 54 -10 62 1 24 -39 301
-42 303 -55 29 -72 36 -80 32 -4 -3 -21 1 -37 9 -27 14 -104 29 -199 40 -31 3
-43 0 -43 -9 0 -15 -38 -27 -46 -14 -14 24 -24 4 -22 -46 l2 -55 41 -1 c22 -1
44 -1 48 0 12 2 48 -19 90 -51 40 -32 47 -61 23 -94 -14 -19 -15 -19 -49 -1
-26 14 -42 16 -67 10 -32 -8 -55 -33 -31 -33 6 0 50 -18 96 -40 65 -31 85 -45
85 -60 0 -11 4 -20 9 -20 6 0 7 24 4 55 -8 80 13 70 26 -12 30 -190 35 -260
16 -241 -3 3 -12 47 -19 99 -8 52 -14 78 -15 58 -1 -24 -7 -39 -17 -43 -32
-12 -73 -5 -101 18 -47 39 -74 50 -84 35 -13 -21 -12 -24 28 -45 42 -22 98
-97 89 -119 -13 -35 -161 -4 -188 38 -4 6 -10 8 -14 5 -7 -8 35 -58 49 -58 4
0 19 -11 32 -24 14 -14 32 -29 41 -34 11 -6 15 -16 10 -27 -8 -21 -37 -15
-118 24 l-56 27 -38 -31 c-33 -28 -42 -31 -73 -24 -51 11 -83 39 -114 100 -28
52 -29 58 -24 156 6 114 15 135 79 204 29 31 62 53 103 69 79 31 85 36 85 78
0 32 -38 273 -44 279 -1 2 -21 -6 -44 -17 -23 -11 -57 -23 -75 -26 -17 -3 -59
-14 -92 -24 -33 -11 -108 -34 -166 -51 -94 -29 -113 -38 -162 -83 -30 -28 -84
-89 -121 -136 -36 -47 -75 -96 -87 -109 -11 -14 -40 -65 -64 -115 -37 -77
-113 -206 -142 -241 -10 -13 -73 -140 -73 -149 0 -3 -9 -25 -19 -49 -11 -23
-25 -68 -31 -100 -7 -32 -23 -90 -36 -129 -31 -88 -41 -182 -24 -232 8 -25 28
-48 63 -75 87 -64 116 -73 230 -72 56 1 179 -1 273 -4 159 -6 173 -5 225 16
45 18 80 22 209 26 88 3 202 0 265 -7 61 -7 128 -13 150 -15 22 -1 109 -7 193
-14 208 -15 714 -11 734 7 10 7 73 16 164 22 82 5 162 13 179 18 21 6 40 3 69
-11 23 -11 71 -21 117 -24 68 -5 82 -3 116 17 47 27 71 59 114 150 57 122 65
359 16 512 -31 95 -35 102 -51 89 -9 -8 -18 -6 -32 4 -26 20 -34 19 -34 -6 0
-14 -5 -19 -17 -17 -10 2 -18 10 -18 17 0 23 -23 24 -42 2 -22 -27 -43 -27
-43 -1 0 13 -7 20 -20 20 -11 0 -20 6 -20 13 0 6 -14 19 -31 27 -21 10 -35 28
-44 54 -8 22 -12 42 -10 46 2 3 0 12 -5 20 -5 8 -5 19 0 25 4 5 10 26 12 45 2
27 8 36 26 38 27 4 27 9 5 35 -17 18 -17 19 2 33 10 8 27 14 36 14 10 0 21 9
24 21 5 16 12 19 31 15 14 -4 24 -2 24 4 0 10 -28 58 -40 70 -3 3 -17 23 -32
45 -48 70 -177 195 -201 195 -8 0 -21 8 -29 18 -17 18 -80 187 -109 286 -28
99 -85 250 -95 252 -5 1 -22 -11 -38 -26z m-799 -685 c-7 -16 -37 -21 -37 -5
0 10 32 31 39 25 2 -2 1 -11 -2 -20z m394 -18 c-10 -9 -11 -8 -5 6 3 10 9 15
12 12 3 -3 0 -11 -7 -18z m-458 -145 c-9 -35 -21 -25 -19 17 0 34 2 36 13 22
6 -10 9 -28 6 -39z m712 -333 c3 -41 9 -165 15 -276 l11 -203 -26 -34 c-54
-70 -163 -125 -312 -155 -180 -37 -383 -24 -484 29 -50 27 -75 69 -84 140 -3
30 -17 119 -31 198 -13 79 -24 145 -24 148 0 3 12 4 26 2 23 -3 27 -8 29 -43
7 -97 56 -358 72 -386 29 -49 71 -61 228 -66 119 -4 153 -2 226 16 48 12 95
21 105 21 11 0 46 14 79 30 33 17 64 30 71 30 6 0 30 18 54 40 37 34 42 43 36
67 -4 15 -9 102 -12 193 -2 91 -6 200 -7 242 -2 49 0 79 7 81 16 6 16 6 21
-74z m-430 51 c9 -27 -1 -40 -31 -40 -18 0 -24 5 -24 23 0 13 3 27 7 30 13 14
42 6 48 -13z m-313 -131 c5 -41 12 -107 18 -148 6 -46 7 -78 1 -84 -15 -15
-31 2 -32 36 -1 41 -16 92 -18 62 -1 -17 -3 -17 -11 -5 -13 20 -13 110 0 110
6 0 10 25 10 56 0 84 23 65 32 -27z m339 -86 c10 -11 7 -18 -9 -34 -12 -11
-22 -25 -22 -31 0 -24 -18 8 -24 43 -6 34 -5 37 19 37 13 0 30 -7 36 -15z
m109 -161 c0 -11 -7 -41 -15 -68 -8 -27 -15 -61 -15 -76 0 -18 -5 -28 -15 -28
-8 0 -23 -9 -32 -20 -12 -13 -20 -16 -29 -9 -9 8 -9 17 3 40 8 17 17 28 20 25
2 -2 0 -14 -7 -25 -12 -23 1 -29 18 -8 8 9 52 165 52 183 0 2 5 4 10 4 6 0 10
-8 10 -18z m198 -52 c-4 -29 16 -44 24 -18 3 7 10 8 17 3 11 -6 8 -12 -10 -26
-13 -10 -30 -19 -36 -19 -13 0 -17 -12 -14 -37 3 -18 -16 -16 -23 2 -4 12 -10
13 -31 3 -21 -10 -27 -9 -39 7 -14 19 -5 79 15 99 14 15 21 -18 9 -48 -13 -37
-5 -48 26 -34 21 10 24 16 19 40 -7 31 8 58 32 58 11 0 14 -8 11 -30z m-146
-43 c-6 -23 -9 -53 -5 -65 4 -16 1 -22 -11 -22 -21 0 -22 57 -1 107 20 48 30
35 17 -20z m-357 -72 c-15 -19 -24 -39 -21 -44 4 -5 2 -12 -4 -16 -6 -4 -10 9
-10 34 0 28 5 43 18 50 36 21 43 11 17 -24z m161 27 c7 -4 11 -23 9 -42 -4
-47 -4 -47 -15 -30 -7 12 -12 12 -22 2 -25 -25 -38 -14 -26 21 18 52 31 64 54
49z m-90 -30 c3 -17 -32 -62 -48 -62 -18 0 -7 59 14 74 24 17 31 15 34 -12z
m-148 6 c15 -15 16 -72 2 -63 -6 4 -8 15 -5 26 4 13 1 21 -10 25 -22 9 -31 -3
-40 -51 l-7 -40 21 19 c12 11 24 16 29 12 11 -11 -30 -37 -53 -34 -15 2 -19 9
-17 28 6 49 11 70 17 80 9 14 48 13 63 -2z"/>
<path d="M2360 853 c0 -10 5 -25 10 -33 8 -12 10 -9 10 12 0 15 -4 30 -10 33
-5 3 -10 -2 -10 -12z"/>
<path d="M2677 503 c-12 -12 -7 -22 8 -17 8 4 15 10 15 15 0 11 -14 12 -23 2z"/>
<path d="M2580 480 c-8 -5 -12 -11 -9 -14 3 -3 14 1 25 9 21 16 8 20 -16 5z"/>
<path d="M1650 2172 c0 -40 -69 -215 -111 -279 -64 -100 -176 -238 -260 -321
-97 -96 -105 -103 -167 -147 -56 -40 -67 -65 -28 -65 19 0 25 -7 30 -36 6 -30
10 -34 29 -28 27 8 33 13 185 163 67 66 122 125 122 130 0 5 9 11 20 14 11 3
24 16 29 29 5 13 16 30 25 37 55 46 172 241 209 348 19 56 12 84 -33 132 -41
46 -50 49 -50 23z"/>
<path d="M2190 1780 c0 -5 5 -10 10 -10 6 0 10 5 10 10 0 6 -4 10 -10 10 -5 0
-10 -4 -10 -10z"/>
<path d="M3005 1760 c-3 -5 -1 -10 4 -10 6 0 11 5 11 10 0 6 -2 10 -4 10 -3 0
-8 -4 -11 -10z"/>
<path d="M2190 1730 c-20 -12 -5 -25 31 -25 21 0 29 5 29 18 0 19 -34 23 -60
7z"/>
<path d="M2400 1732 c0 -5 14 -7 30 -4 17 2 30 6 30 8 0 2 -13 4 -30 4 -16 0
-30 -4 -30 -8z"/>
<path d="M2470 1736 c0 -2 7 -6 15 -10 8 -3 15 -1 15 4 0 6 -7 10 -15 10 -8 0
-15 -2 -15 -4z"/>
<path d="M2850 1720 c1 -15 19 -32 29 -26 18 12 12 32 -9 32 -11 0 -20 -3 -20
-6z"/>
<path d="M2313 1686 c4 -9 -1 -17 -11 -19 -9 -3 -3 -5 14 -6 17 0 53 -4 79 -8
38 -5 47 -3 43 8 -3 8 -18 15 -34 15 -16 1 -42 6 -57 13 -37 14 -40 14 -34 -3z"/>
<path d="M2798 1688 c-30 -10 -38 -28 -13 -28 19 0 19 -14 0 -30 -8 -7 -12
-17 -8 -23 4 -6 -3 -8 -20 -3 -14 3 -29 2 -32 -4 -10 -17 25 -24 50 -10 13 7
28 10 33 6 6 -3 14 -1 18 5 3 6 22 18 41 26 27 11 38 11 49 2 11 -9 18 -9 26
-1 15 15 93 16 119 2 29 -16 24 6 -6 26 -17 11 -38 14 -67 11 -24 -3 -49 0
-56 6 -10 8 -12 7 -10 -4 2 -10 -6 -13 -30 -11 -18 2 -39 -1 -45 -7 -7 -5 -18
-6 -26 -2 -10 6 -9 11 3 24 28 28 21 33 -26 15z"/>
<path d="M2668 1659 c-10 -5 -18 -20 -18 -32 1 -19 2 -20 13 -6 7 8 20 18 30
22 10 4 15 11 12 17 -8 12 -15 12 -37 -1z"/>
<path d="M2460 1642 c0 -6 21 -12 48 -14 45 -3 47 -4 44 -32 -2 -19 1 -27 10
-23 10 3 14 54 5 64 -1 1 -26 5 -55 9 -35 4 -52 3 -52 -4z"/>
<path d="M3155 1546 c-17 -13 -18 -17 -5 -25 18 -12 33 1 28 23 -3 15 -5 16
-23 2z"/>
<path d="M3175 1447 c-4 -10 -5 -21 -1 -24 10 -10 18 4 13 24 -4 17 -4 17 -12
0z"/>
<path d="M2086 1113 c-11 -11 -6 -23 9 -23 8 0 15 4 15 9 0 13 -16 22 -24 14z"/>
<path d="M2067 984 c-8 -8 1 -24 14 -24 5 0 9 7 9 15 0 15 -12 20 -23 9z"/>
</g>
</svg>
